<svg xmlns="http://www.w3.org/2000/svg" version="1.1" xmlns:xlink="http://www.w3.org/1999/xlink" xmlns:svgjs="http://svgjs.com/svgjs" width="1440" height="560" preserveAspectRatio="none" viewBox="0 0 1440 560"><g mask="url(&quot;#SvgjsMask1011&quot;)" fill="none"><path d="M1560 560L0 560 L0 314.74Q44.91 239.65, 120 284.56Q203.48 248.04, 240 331.52Q292.26 311.78, 312 364.05Q339.17 319.22, 384 346.38Q389.99 280.37, 456 286.36Q497.19 255.55, 528 296.74Q585.16 281.9, 600 339.07Q654.63 273.7, 720 328.33Q799.85 288.18, 840 368.03Q889.51 297.54, 960 347.06Q990.55 257.62, 1080 288.17Q1127.63 263.8, 1152 311.42Q1197.89 285.31, 1224 331.21Q1274.82 310.02, 1296 360.84Q1300.63 293.48, 1368 298.11Q1397.84 255.95, 1440 285.79Q1528.34 254.13, 1560 342.46z" fill="rgba(45, 27, 229, 1)"></path><path d="M1536 560L0 560 L0 414.8Q68.83 363.63, 120 432.46Q155.84 348.3, 240 384.15Q281.45 353.6, 312 395.05Q357.91 320.96, 432 366.87Q461.49 324.36, 504 353.84Q555.66 333.5, 576 385.16Q658.31 347.47, 696 429.77Q761.11 374.88, 816 439.98Q818.82 370.8, 888 373.61Q948.95 362.56, 960 423.52Q1005.29 396.81, 1032 442.1Q1033.8 371.9, 1104 373.7Q1155.72 305.42, 1224 357.14Q1307.45 320.6, 1344 404.05Q1399.31 387.36, 1416 442.67Q1432.05 338.72, 1536 354.76z" fill="rgba(20, 237, 229, 1)"></path><path d="M1464 560L0 560 L0 454.12Q82.44 416.56, 120 498.99Q126.9 433.89, 192 440.79Q234.58 411.37, 264 453.95Q329.32 447.27, 336 512.59Q360.83 465.42, 408 490.25Q454.19 416.44, 528 462.63Q574.56 389.19, 648 435.74Q690.2 405.94, 720 448.14Q787.37 395.5, 840 462.87Q922.51 425.38, 960 507.89Q978.68 406.57, 1080 425.25Q1147.87 373.12, 1200 440.98Q1256.23 425.21, 1272 481.43Q1322.54 459.97, 1344 510.51Q1361.17 407.68, 1464 424.85z" fill="rgba(225, 25, 173, 1)"></path><path d="M1464 560L0 560 L0 562.74Q6.41 497.15, 72 503.57Q125.37 436.94, 192 490.3Q285.17 463.47, 312 556.63Q362.6 487.23, 432 537.82Q491.5 525.33, 504 584.83Q521.27 482.11, 624 499.38Q693.23 448.61, 744 517.83Q798.52 500.36, 816 554.88Q867.52 534.4, 888 585.92Q899.53 525.45, 960 536.99Q1033.83 490.82, 1080 564.65Q1088.33 500.98, 1152 509.31Q1204.56 441.87, 1272 494.42Q1332.17 482.59, 1344 542.76Q1393.03 471.79, 1464 520.82z" fill="white"></path></g><defs><mask id="SvgjsMask1011"><rect width="1440" height="560" fill="#ffffff"></rect></mask></defs></svg>